PathFileType	4	(X/Y/Z)	0_coords_data.trc
DataRate	CameraRate	NumFrames	NumMarkers	Units	OrigDataRate	OrigDataStartFrame	OrigNumFrames
30.0	30.0	8	21	m	30.0	62	72
Frame#	Time	THUMB_TIP	THUMB_IP	THUMB_MCP	THUMB_CMC	INDEX_TIP	INDEX_DIP	INDEX_PIP	INDEX_MCP	MIDDLE_TIP	MIDDLE_DIP	MIDDLE_PIP	MIDDLE_MCP	RING_TIP	RING_DIP	RING_PIP	RING_MCP	PINKY_TIP	PINKY_DIP	PINKY_PIP	PINKY_MCP	WRIST
X1	Y1	Z1	X2	Y2	Z2	X3	Y3	Z3	X4	Y4	Z4	X5	Y5	Z5	X6	Y6	Z6	X7	Y7	Z7	X8	Y8	Z8	X9	Y9	Z9	X10	Y10	Z10	X11	Y11	Z11	X12	Y12	Z12	X13	Y13	Z13	X14	Y14	Z14	X15	Y15	Z15	X16	Y16	Z16	X17	Y17	Z17	X18	Y18	Z18	X19	Y19	Z19	X20	Y20	Z20	X21	Y21	Z21
60	2.0333333333333243	0.5448910116669006	0.058215522993967705	-0.021514574099506745	0.5303769398088943	0.042103575001621873	-0.02911370891819315	0.5180647570061391	0.021618385865023737	-0.04905329719552065	0.48430236117094694	-0.0069396876647283	-0.04318583916524232	0.5098853711906348	0.12423304616674635	0.006955357457562539	0.5049001206510273	0.11061388308525333	-0.0038920235174488282	0.49822645272034216	0.09115462742317759	-0.018342260831379797	0.48519349543261114	0.05774034508353065	-0.04130448751048321	0.4885989429373888	0.12124368422429754	0.033883513289327094	0.48455813597564956	0.10828586297163478	0.02189323608310695	0.4769344605006099	0.08797687588910397	0.0024295733771084738	0.46866080267011706	0.0536324775891992	-0.02492288195182729	0.46594416164694885	0.10469607996316566	0.048079877150337624	0.46353629831918985	0.09182279675851701	0.03569114139047297	0.4594472392855391	0.07496397414621236	0.0178238619292298	0.4611213504241158	0.043855499014764154	-0.007947846607298636	0.45595177585058155	0.07142098680879383	0.06034781208799345	0.45292812833918766	0.06135737503491667	0.04683554825873365	0.45014712920360683	0.04933944532755907	0.0298459211775729	0.45517977853682484	0.026180440786295667	0.002657386823058605	0.4622830810018609	-0.023011742144276925	-0.051989820119430985
61	2.0666666666666575	0.54480220596052	0.05849680186191575	-0.022098250472787573	0.5303137427720489	0.042314417942944216	-0.029595909116345687	0.5179291150821544	0.021761449373710273	-0.049420552365967485	0.48429037015314247	-0.006881325289501361	-0.04326293113749363	0.5100271118207199	0.12388417989966638	0.007340835917363009	0.5049815260783936	0.11034684356132685	-0.00358082097980722	0.49819803609420893	0.09100330953545133	-0.01813491964733932	0.4850303613406144	0.05778666106453478	-0.04130608060105734	0.4888706790391371	0.1210555853882449	0.03406139380087414	0.48481773962380703	0.10809829237097435	0.02207464112301133	0.4771380366306456	0.08781291934404034	0.0026083792041176612	0.46857434659793584	0.053605432223901794	-0.02482625144674455	0.46625510864489805	0.10451463482158518	0.048272475059970066	0.46375682820395436	0.0916683219574187	0.03587365089659256	0.4595629373783495	0.07484092745976201	0.01800104467469138	0.4610883924142779	0.043789135453840555	-0.00784813392259387	0.4561603965768467	0.07113961385324441	0.06056362023567319	0.45307962126393114	0.06111671253609996	0.04703401297388937	0.4502165634383913	0.04916262170761909	0.03001300738220819	0.455183238347434	0.02609157856402644	0.00273769694191478	0.4622830810018609	-0.023011742144276925	-0.051989820119430985
62	2.0999999999999908	0.5446818080834515	0.0586285500121454	-0.022318454697455803	0.5302433359577448	0.04239876090227268	-0.029810081231410213	0.5178440437572707	0.02183563982781067	-0.04961502012564273	0.48430583763720103	-0.006888259876726033	-0.04328917504285429	0.5102015031559827	0.12349523815824892	0.0078292974634529	0.5051106848179302	0.11003602451653138	-0.00316766288000353	0.49823386822402715	0.09080957135763812	-0.017832679943161178	0.4849566713299148	0.05779764829095557	-0.041232788320568536	0.48912821898320336	0.12078304711881593	0.034357477115944	0.48505034256878937	0.10785402863504479	0.022348671805045184	0.4773161128214088	0.08762275220904214	0.002847730945963578	0.46851532172604693	0.053564363077642674	-0.024697143838104285	0.4665318084267317	0.10424833092150898	0.04855344792529459	0.4639401521734055	0.09144943739814348	0.03612478579125339	0.4596383139678587	0.07469097373731881	0.018213111866627718	0.4610333334810438	0.043703976740245065	-0.007721050384372208	0.45634651065397197	0.07081048183939176	0.060796423651452824	0.45318770556900395	0.06084784519199671	0.04724032460094574	0.4502180222400208	0.04896428997099411	0.030188224576756795	0.45514668215502213	0.02597934343560715	0.0028334444605200293	0.4622830810018609	-0.023011742144276925	-0.051989820119430985
64	2.133333333333335	0.5447410823678456	0.05850694080969787	-0.022407496103970304	0.5303067343819088	0.04228908879610238	-0.029932844885654675	0.5178659782625384	0.021785475746286975	-0.0497734456598698	0.4843487157925233	-0.006933263880029572	-0.04331456721296012	0.510551636676258	0.12314100272486772	0.008227477519274606	0.5054076939103876	0.10974332355913263	-0.002819786657591916	0.49842688016731274	0.09061718611565461	-0.01756661475646415	0.4850249775986362	0.057762963098795916	-0.04111709525046281	0.4894727010974763	0.12053366323248349	0.03465009020295584	0.4853795032555631	0.1076254350680037	0.022624144207705033	0.4775963125589218	0.08743967407869979	0.0030955358122660703	0.4686063497264382	0.05349782570172679	-0.024531976164478164	0.46687332509885204	0.10400824130338204	0.04883029975200115	0.46422563293165925	0.09123905569808799	0.03638290543972289	0.4598490122172811	0.0745392043189147	0.01843464273727713	0.4611248089566715	0.04360120227506992	-0.007564072735122829	0.456621612494159	0.0704999225134425	0.061035310839680945	0.4534027635836512	0.06059560011776566	0.04745063529796045	0.4503410781021687	0.048781619115833785	0.03036649195102986	0.45521194712731367	0.02586004491398275	0.002948258564304973	0.4622830810018609	-0.023011742144276925	-0.051989820119430985
65	2.1666666666666683	0.5448523863431642	0.058345386389626164	-0.0225170273342456	0.5304037480146314	0.042152126634034226	-0.030067867614583632	0.517908575378138	0.02171367187530182	-0.04994147392696391	0.48440058019643684	-0.006985683443531565	-0.043349716711589326	0.5109747506319121	0.12277523576094507	0.008602895755311313	0.5057703039164149	0.10943988697229756	-0.0024913463130171176	0.4986771879829345	0.09041332811759395	-0.017313208459950824	0.48513199045592337	0.05771705702993446	-0.0410011289030065	0.48988846291467253	0.12027093663227639	0.03494083145800453	0.4857672848104009	0.1073880923371634	0.022897235072341815	0.4779186604027602	0.08725486529348903	0.003340604132539171	0.4687398291784294	0.05342584556258301	-0.02436308519580166	0.46729521333616336	0.10375836914105974	0.04911280880021224	0.4645833261024229	0.09102194221879145	0.0366456881669146	0.46012182230155935	0.07438612329550787	0.018658901583797516	0.4612626086568592	0.04349461654612152	-0.007401302775420171	0.45699039675648956	0.07019090072502909	0.06127589311837095	0.4536995129396626	0.06034436247726305	0.04766649312280086	0.4505346946179743	0.04860040151060796	0.03055289254301663	0.45532154336382447	0.025738377669598522	0.0030702180738629292	0.4622830810018609	-0.023011742144276925	-0.051989820119430985
66	2.200000000000002	0.5449999250111386	0.05818690003947047	-0.022697721174127328	0.530521354273173	0.042021746788030945	-0.030251449375697403	0.5179578013115573	0.021636701537474212	-0.05013679742679872	0.48445639974257637	-0.007036418229527719	-0.04339897168394591	0.5114431592517189	0.12241126127004409	0.008936264320604292	0.5061727518630517	0.10913833332368617	-0.0022016075447151007	0.4989633452004109	0.09020768307251614	-0.017090018126122153	0.4852576681418004	0.057667596250214004	-0.04090037847539296	0.49033607914199173	0.12002254666152046	0.035199847627769676	0.48618253789332594	0.10716284803153941	0.02314264039550845	0.4782635798065236	0.08707898577641415	0.0035636176993514845	0.4688965931693025	0.05335524581499018	-0.024205373016055798	0.4677600898515885	0.103524457231988	0.049373222549574436	0.46498274205163076	0.09081898810647537	0.036888936686990226	0.4604348014817733	0.07424458656711264	0.018867132415913035	0.4614324579645474	0.04339175839794984	-0.007244713736867969	0.4574153310578762	0.0699081629990278	0.061498782180990696	0.45404757119602446	0.060113096619924034	0.04787105793437302	0.4507788483927945	0.04843302820691697	0.030733278845380296	0.45546500077592456	0.02562227167018505	0.0031907151835853242	0.4622830810018609	-0.023011742144276925	-0.051989820119430985
67	2.233333333333335	0.5451677697664898	0.058074450680399625	-0.02300011666102597	0.530646411508828	0.04193177775634993	-0.030519708752342445	0.5179995039914724	0.021570991145163365	-0.05037705245237378	0.4845111514605982	-0.007076292921944893	-0.04346667182998459	0.5119293004645498	0.12206266708137137	0.009208447059605884	0.5065893822839312	0.10885153261061342	-0.0019697102044448633	0.49926388230742796	0.0900101671307103	-0.016914603310351217	0.48538195087448804	0.05762244186935217	-0.0408303580775739	0.49077617433550885	0.11981666487713294	0.035397581160656666	0.4865941926177911	0.10697093639397648	0.02333531401680289	0.47861152479663827	0.0869229617965317	0.003745386018023822	0.46905748618321447	0.05329308524364762	-0.02407366627012919	0.4682305809699668	0.10333277015003861	0.0495842561046716	0.46539338373591654	0.09065150594324889	0.03708882294000332	0.46076595942608634	0.07412771553530517	0.019040796072471722	0.4616200892162324	0.043300332359285876	-0.007106168241200861	0.4578589606710124	0.06967684892452952	0.06168516175556377	0.45441661590972027	0.059921040382961865	0.04804791635025257	0.45105342343349464	0.04829207100985855	0.03089367411437155	0.45563183479924524	0.025519752234286486	0.003301227721387523	0.4622830810018609	-0.023011742144276925	-0.051989820119430985
68	2.2666666666666684	0.5453395303370374	0.058050532386548226	-0.023474786079846377	0.5307654511263559	0.041915688843244814	-0.030908697499408444	0.5180193334256883	0.021532860954006527	-0.05067980800940319	0.48455978637323394	-0.007096083447639789	-0.04355715025460216	0.5124057360317763	0.12174327961252829	0.009400444395238461	0.5069946430414398	0.10859257850376602	-0.0018146852517131884	0.4995573040521834	0.08983089907918407	-0.01680452203962074	0.48548475965919463	0.05758962777946364	-0.04080660555929011	0.4911694245269931	0.11968184168995144	0.03550471012091866	0.4869712550894333	0.1068339116435103	0.02345041350538396	0.47894297052585466	0.08679796911912163	0.0038668182244963045	0.4692033580478489	0.0532466583064245	-0.023982731368415666	0.4686693254417562	0.10321003244428728	0.04971905041322061	0.46578474526482966	0.0905411940262213	0.037221861515719545	0.4610932865891595	0.0740488683004702	0.01916159056951816	0.46181124006920254	0.04322823108814389	-0.006997417412946905	0.4582838984407984	0.06952244494677973	0.061816748049889625	0.4547763745343646	0.05978768885727026	0.048181066918257354	0.4513382275911555	0.048190281179880334	0.03102031810705097	0.45581153874522773	0.025438956611576802	0.00339333548667492	0.4622830810018609	-0.023011742144276925	-0.051989820119430985
